<mxfile host="app.diagrams.net" modified="2023-08-05T08:53:11.237Z" agent="Mozilla/5.0 (Windows NT 10.0; Win64; x64) AppleWebKit/537.36 (KHTML, like Gecko) Chrome/115.0.0.0 Safari/537.36" etag="P9FZUR_kra1MwKOuFwdS" version="21.6.6" type="github">
  <diagram name="Page-1" id="e3a06f82-3646-2815-327d-82caf3d4e204">
    <mxGraphModel dx="-253.5" dy="763" grid="1" gridSize="10" guides="1" tooltips="1" connect="1" arrows="1" fold="1" page="1" pageScale="1.5" pageWidth="1169" pageHeight="826" background="none" math="0" shadow="0">
      <root>
        <mxCell id="0" style=";html=1;" />
        <mxCell id="1" style=";html=1;" parent="0" />
        <mxCell id="GwbS5jFYsHsskkGVQM9a-1" value="Classroom 1" style="whiteSpace=wrap;html=1;fillColor=#f8cecc;fontSize=14;strokeColor=none;verticalAlign=top;labelBackgroundColor=none;" vertex="1" parent="1">
          <mxGeometry x="1770" y="260" width="493" height="360" as="geometry" />
        </mxCell>
        <mxCell id="GwbS5jFYsHsskkGVQM9a-2" value="" style="verticalLabelPosition=bottom;sketch=0;aspect=fixed;html=1;verticalAlign=top;strokeColor=none;align=center;outlineConnect=0;shape=mxgraph.citrix.desktop;" vertex="1" parent="1">
          <mxGeometry x="1820" y="330" width="67.2" height="74" as="geometry" />
        </mxCell>
        <mxCell id="GwbS5jFYsHsskkGVQM9a-4" value="" style="verticalLabelPosition=bottom;sketch=0;aspect=fixed;html=1;verticalAlign=top;strokeColor=none;align=center;outlineConnect=0;shape=mxgraph.citrix.desktop;" vertex="1" parent="1">
          <mxGeometry x="1820" y="463" width="67.2" height="74" as="geometry" />
        </mxCell>
        <mxCell id="GwbS5jFYsHsskkGVQM9a-5" value="" style="verticalLabelPosition=bottom;sketch=0;aspect=fixed;html=1;verticalAlign=top;strokeColor=none;align=center;outlineConnect=0;shape=mxgraph.citrix.laptop_2;" vertex="1" parent="1">
          <mxGeometry x="2150" y="342.88" width="80.8" height="60.25" as="geometry" />
        </mxCell>
        <mxCell id="GwbS5jFYsHsskkGVQM9a-6" value="PC - 1" style="text;html=1;strokeColor=none;fillColor=none;align=center;verticalAlign=middle;whiteSpace=wrap;rounded=0;" vertex="1" parent="1">
          <mxGeometry x="1823.6" y="403.13" width="60" height="30" as="geometry" />
        </mxCell>
        <mxCell id="GwbS5jFYsHsskkGVQM9a-7" value="PC - 2" style="text;html=1;strokeColor=none;fillColor=none;align=center;verticalAlign=middle;whiteSpace=wrap;rounded=0;" vertex="1" parent="1">
          <mxGeometry x="1823.6" y="538" width="60" height="30" as="geometry" />
        </mxCell>
        <mxCell id="GwbS5jFYsHsskkGVQM9a-8" value="Laptop" style="text;html=1;strokeColor=none;fillColor=none;align=center;verticalAlign=middle;whiteSpace=wrap;rounded=0;" vertex="1" parent="1">
          <mxGeometry x="2160.4" y="403.13" width="60" height="30" as="geometry" />
        </mxCell>
        <mxCell id="GwbS5jFYsHsskkGVQM9a-9" value="" style="sketch=0;pointerEvents=1;shadow=0;dashed=0;html=1;strokeColor=none;fillColor=#505050;labelPosition=center;verticalLabelPosition=bottom;verticalAlign=top;outlineConnect=0;align=center;shape=mxgraph.office.devices.tv;" vertex="1" parent="1">
          <mxGeometry x="1986.5" y="332" width="80" height="60" as="geometry" />
        </mxCell>
        <mxCell id="GwbS5jFYsHsskkGVQM9a-10" value="Smart TV" style="text;html=1;strokeColor=none;fillColor=none;align=center;verticalAlign=middle;whiteSpace=wrap;rounded=0;" vertex="1" parent="1">
          <mxGeometry x="1996.5" y="400" width="60" height="30" as="geometry" />
        </mxCell>
        <mxCell id="GwbS5jFYsHsskkGVQM9a-12" value="" style="image;points=[];aspect=fixed;html=1;align=center;shadow=0;dashed=0;image=img/lib/allied_telesis/wireless/Access_Point_Indoor.svg;" vertex="1" parent="1">
          <mxGeometry x="2008.1999999999998" y="480" width="36.6" height="54.6" as="geometry" />
        </mxCell>
        <mxCell id="GwbS5jFYsHsskkGVQM9a-13" value="AP" style="text;html=1;strokeColor=none;fillColor=none;align=center;verticalAlign=middle;whiteSpace=wrap;rounded=0;" vertex="1" parent="1">
          <mxGeometry x="1996.5" y="538" width="60" height="30" as="geometry" />
        </mxCell>
        <mxCell id="GwbS5jFYsHsskkGVQM9a-14" value="" style="verticalLabelPosition=bottom;sketch=0;aspect=fixed;html=1;verticalAlign=top;strokeColor=none;align=center;outlineConnect=0;shape=mxgraph.citrix.switch;" vertex="1" parent="1">
          <mxGeometry x="2144.4" y="486.55" width="92" height="41.5" as="geometry" />
        </mxCell>
        <mxCell id="GwbS5jFYsHsskkGVQM9a-15" value="Switch" style="text;html=1;strokeColor=none;fillColor=none;align=center;verticalAlign=middle;whiteSpace=wrap;rounded=0;" vertex="1" parent="1">
          <mxGeometry x="2160.4" y="534.6" width="60" height="30" as="geometry" />
        </mxCell>
        <mxCell id="GwbS5jFYsHsskkGVQM9a-22" value="" style="endArrow=none;html=1;rounded=0;" edge="1" parent="1" source="GwbS5jFYsHsskkGVQM9a-4" target="GwbS5jFYsHsskkGVQM9a-14">
          <mxGeometry width="50" height="50" relative="1" as="geometry">
            <mxPoint x="1883.6" y="444.5" as="sourcePoint" />
            <mxPoint x="2140.6" y="551.5" as="targetPoint" />
            <Array as="points">
              <mxPoint x="1920" y="500" />
              <mxPoint x="1920" y="570" />
              <mxPoint x="2030" y="570" />
              <mxPoint x="2140" y="570" />
            </Array>
          </mxGeometry>
        </mxCell>
        <mxCell id="GwbS5jFYsHsskkGVQM9a-24" value="" style="endArrow=none;html=1;rounded=0;" edge="1" parent="1" source="GwbS5jFYsHsskkGVQM9a-12" target="GwbS5jFYsHsskkGVQM9a-14">
          <mxGeometry width="50" height="50" relative="1" as="geometry">
            <mxPoint x="1897" y="527" as="sourcePoint" />
            <mxPoint x="2160" y="538" as="targetPoint" />
            <Array as="points" />
          </mxGeometry>
        </mxCell>
        <mxCell id="GwbS5jFYsHsskkGVQM9a-25" value="" style="endArrow=none;html=1;rounded=0;" edge="1" parent="1" source="GwbS5jFYsHsskkGVQM9a-5" target="GwbS5jFYsHsskkGVQM9a-14">
          <mxGeometry width="50" height="50" relative="1" as="geometry">
            <mxPoint x="2055" y="517" as="sourcePoint" />
            <mxPoint x="2154" y="517" as="targetPoint" />
            <Array as="points" />
          </mxGeometry>
        </mxCell>
        <mxCell id="GwbS5jFYsHsskkGVQM9a-28" value="" style="endArrow=none;dashed=1;html=1;rounded=0;" edge="1" parent="1" source="GwbS5jFYsHsskkGVQM9a-9" target="GwbS5jFYsHsskkGVQM9a-12">
          <mxGeometry width="50" height="50" relative="1" as="geometry">
            <mxPoint x="1980" y="550" as="sourcePoint" />
            <mxPoint x="2030" y="500" as="targetPoint" />
          </mxGeometry>
        </mxCell>
        <mxCell id="GwbS5jFYsHsskkGVQM9a-29" value="" style="endArrow=none;html=1;rounded=0;" edge="1" parent="1" source="GwbS5jFYsHsskkGVQM9a-2" target="GwbS5jFYsHsskkGVQM9a-14">
          <mxGeometry width="50" height="50" relative="1" as="geometry">
            <mxPoint x="1940" y="356" as="sourcePoint" />
            <mxPoint x="1940" y="440" as="targetPoint" />
            <Array as="points">
              <mxPoint x="1790" y="370" />
              <mxPoint x="1790" y="480" />
              <mxPoint x="1790" y="590" />
              <mxPoint x="2190" y="590" />
            </Array>
          </mxGeometry>
        </mxCell>
        <mxCell id="GwbS5jFYsHsskkGVQM9a-49" value="Classroom 2" style="whiteSpace=wrap;html=1;fillColor=#f8cecc;fontSize=14;strokeColor=none;verticalAlign=top;labelBackgroundColor=none;" vertex="1" parent="1">
          <mxGeometry x="1770" y="630" width="493" height="360" as="geometry" />
        </mxCell>
        <mxCell id="GwbS5jFYsHsskkGVQM9a-50" value="" style="verticalLabelPosition=bottom;sketch=0;aspect=fixed;html=1;verticalAlign=top;strokeColor=none;align=center;outlineConnect=0;shape=mxgraph.citrix.desktop;" vertex="1" parent="1">
          <mxGeometry x="1820" y="700" width="67.2" height="74" as="geometry" />
        </mxCell>
        <mxCell id="GwbS5jFYsHsskkGVQM9a-51" value="" style="verticalLabelPosition=bottom;sketch=0;aspect=fixed;html=1;verticalAlign=top;strokeColor=none;align=center;outlineConnect=0;shape=mxgraph.citrix.desktop;" vertex="1" parent="1">
          <mxGeometry x="1820" y="833" width="67.2" height="74" as="geometry" />
        </mxCell>
        <mxCell id="GwbS5jFYsHsskkGVQM9a-52" value="" style="verticalLabelPosition=bottom;sketch=0;aspect=fixed;html=1;verticalAlign=top;strokeColor=none;align=center;outlineConnect=0;shape=mxgraph.citrix.laptop_2;" vertex="1" parent="1">
          <mxGeometry x="2150" y="712.88" width="80.8" height="60.25" as="geometry" />
        </mxCell>
        <mxCell id="GwbS5jFYsHsskkGVQM9a-53" value="PC - 3" style="text;html=1;strokeColor=none;fillColor=none;align=center;verticalAlign=middle;whiteSpace=wrap;rounded=0;" vertex="1" parent="1">
          <mxGeometry x="1823.6" y="773.13" width="60" height="30" as="geometry" />
        </mxCell>
        <mxCell id="GwbS5jFYsHsskkGVQM9a-54" value="PC - 4" style="text;html=1;strokeColor=none;fillColor=none;align=center;verticalAlign=middle;whiteSpace=wrap;rounded=0;" vertex="1" parent="1">
          <mxGeometry x="1823.6" y="908" width="60" height="30" as="geometry" />
        </mxCell>
        <mxCell id="GwbS5jFYsHsskkGVQM9a-55" value="Laptop" style="text;html=1;strokeColor=none;fillColor=none;align=center;verticalAlign=middle;whiteSpace=wrap;rounded=0;" vertex="1" parent="1">
          <mxGeometry x="2160.4" y="773.13" width="60" height="30" as="geometry" />
        </mxCell>
        <mxCell id="GwbS5jFYsHsskkGVQM9a-56" value="" style="sketch=0;pointerEvents=1;shadow=0;dashed=0;html=1;strokeColor=none;fillColor=#505050;labelPosition=center;verticalLabelPosition=bottom;verticalAlign=top;outlineConnect=0;align=center;shape=mxgraph.office.devices.tv;" vertex="1" parent="1">
          <mxGeometry x="1986.5" y="702" width="80" height="60" as="geometry" />
        </mxCell>
        <mxCell id="GwbS5jFYsHsskkGVQM9a-57" value="Smart TV" style="text;html=1;strokeColor=none;fillColor=none;align=center;verticalAlign=middle;whiteSpace=wrap;rounded=0;" vertex="1" parent="1">
          <mxGeometry x="1996.5" y="770" width="60" height="30" as="geometry" />
        </mxCell>
        <mxCell id="GwbS5jFYsHsskkGVQM9a-58" value="" style="image;points=[];aspect=fixed;html=1;align=center;shadow=0;dashed=0;image=img/lib/allied_telesis/wireless/Access_Point_Indoor.svg;" vertex="1" parent="1">
          <mxGeometry x="2008.1999999999998" y="850" width="36.6" height="54.6" as="geometry" />
        </mxCell>
        <mxCell id="GwbS5jFYsHsskkGVQM9a-59" value="AP" style="text;html=1;strokeColor=none;fillColor=none;align=center;verticalAlign=middle;whiteSpace=wrap;rounded=0;" vertex="1" parent="1">
          <mxGeometry x="1996.5" y="908" width="60" height="30" as="geometry" />
        </mxCell>
        <mxCell id="GwbS5jFYsHsskkGVQM9a-60" value="" style="verticalLabelPosition=bottom;sketch=0;aspect=fixed;html=1;verticalAlign=top;strokeColor=none;align=center;outlineConnect=0;shape=mxgraph.citrix.switch;" vertex="1" parent="1">
          <mxGeometry x="2144.4" y="856.55" width="92" height="41.5" as="geometry" />
        </mxCell>
        <mxCell id="GwbS5jFYsHsskkGVQM9a-61" value="Switch" style="text;html=1;strokeColor=none;fillColor=none;align=center;verticalAlign=middle;whiteSpace=wrap;rounded=0;" vertex="1" parent="1">
          <mxGeometry x="2160.4" y="904.6" width="60" height="30" as="geometry" />
        </mxCell>
        <mxCell id="GwbS5jFYsHsskkGVQM9a-62" value="" style="endArrow=none;html=1;rounded=0;" edge="1" parent="1" source="GwbS5jFYsHsskkGVQM9a-51" target="GwbS5jFYsHsskkGVQM9a-60">
          <mxGeometry width="50" height="50" relative="1" as="geometry">
            <mxPoint x="1883.6" y="814.5" as="sourcePoint" />
            <mxPoint x="2140.6" y="921.5" as="targetPoint" />
            <Array as="points">
              <mxPoint x="1920" y="870" />
              <mxPoint x="1920" y="940" />
              <mxPoint x="2030" y="940" />
              <mxPoint x="2140" y="940" />
            </Array>
          </mxGeometry>
        </mxCell>
        <mxCell id="GwbS5jFYsHsskkGVQM9a-63" value="" style="endArrow=none;html=1;rounded=0;" edge="1" parent="1" source="GwbS5jFYsHsskkGVQM9a-58" target="GwbS5jFYsHsskkGVQM9a-60">
          <mxGeometry width="50" height="50" relative="1" as="geometry">
            <mxPoint x="1897" y="897" as="sourcePoint" />
            <mxPoint x="2160" y="908" as="targetPoint" />
            <Array as="points" />
          </mxGeometry>
        </mxCell>
        <mxCell id="GwbS5jFYsHsskkGVQM9a-64" value="" style="endArrow=none;html=1;rounded=0;" edge="1" parent="1" source="GwbS5jFYsHsskkGVQM9a-52" target="GwbS5jFYsHsskkGVQM9a-60">
          <mxGeometry width="50" height="50" relative="1" as="geometry">
            <mxPoint x="2055" y="887" as="sourcePoint" />
            <mxPoint x="2154" y="887" as="targetPoint" />
            <Array as="points" />
          </mxGeometry>
        </mxCell>
        <mxCell id="GwbS5jFYsHsskkGVQM9a-65" value="" style="endArrow=none;dashed=1;html=1;rounded=0;" edge="1" parent="1" source="GwbS5jFYsHsskkGVQM9a-56" target="GwbS5jFYsHsskkGVQM9a-58">
          <mxGeometry width="50" height="50" relative="1" as="geometry">
            <mxPoint x="1980" y="920" as="sourcePoint" />
            <mxPoint x="2030" y="870" as="targetPoint" />
          </mxGeometry>
        </mxCell>
        <mxCell id="GwbS5jFYsHsskkGVQM9a-66" value="" style="endArrow=none;html=1;rounded=0;" edge="1" parent="1" source="GwbS5jFYsHsskkGVQM9a-50" target="GwbS5jFYsHsskkGVQM9a-60">
          <mxGeometry width="50" height="50" relative="1" as="geometry">
            <mxPoint x="1940" y="726" as="sourcePoint" />
            <mxPoint x="1940" y="810" as="targetPoint" />
            <Array as="points">
              <mxPoint x="1790" y="740" />
              <mxPoint x="1790" y="850" />
              <mxPoint x="1790" y="960" />
              <mxPoint x="2190" y="960" />
            </Array>
          </mxGeometry>
        </mxCell>
        <mxCell id="GwbS5jFYsHsskkGVQM9a-67" value="Classroom 3" style="whiteSpace=wrap;html=1;fillColor=#f8cecc;fontSize=14;strokeColor=none;verticalAlign=top;labelBackgroundColor=none;" vertex="1" parent="1">
          <mxGeometry x="2290" y="260" width="493" height="360" as="geometry" />
        </mxCell>
        <mxCell id="GwbS5jFYsHsskkGVQM9a-68" value="" style="verticalLabelPosition=bottom;sketch=0;aspect=fixed;html=1;verticalAlign=top;strokeColor=none;align=center;outlineConnect=0;shape=mxgraph.citrix.desktop;" vertex="1" parent="1">
          <mxGeometry x="2340" y="330" width="67.2" height="74" as="geometry" />
        </mxCell>
        <mxCell id="GwbS5jFYsHsskkGVQM9a-69" value="" style="verticalLabelPosition=bottom;sketch=0;aspect=fixed;html=1;verticalAlign=top;strokeColor=none;align=center;outlineConnect=0;shape=mxgraph.citrix.desktop;" vertex="1" parent="1">
          <mxGeometry x="2340" y="463" width="67.2" height="74" as="geometry" />
        </mxCell>
        <mxCell id="GwbS5jFYsHsskkGVQM9a-70" value="" style="verticalLabelPosition=bottom;sketch=0;aspect=fixed;html=1;verticalAlign=top;strokeColor=none;align=center;outlineConnect=0;shape=mxgraph.citrix.laptop_2;" vertex="1" parent="1">
          <mxGeometry x="2670" y="342.88" width="80.8" height="60.25" as="geometry" />
        </mxCell>
        <mxCell id="GwbS5jFYsHsskkGVQM9a-71" value="PC - 5" style="text;html=1;strokeColor=none;fillColor=none;align=center;verticalAlign=middle;whiteSpace=wrap;rounded=0;" vertex="1" parent="1">
          <mxGeometry x="2343.6" y="403.13" width="60" height="30" as="geometry" />
        </mxCell>
        <mxCell id="GwbS5jFYsHsskkGVQM9a-72" value="PC - 6" style="text;html=1;strokeColor=none;fillColor=none;align=center;verticalAlign=middle;whiteSpace=wrap;rounded=0;" vertex="1" parent="1">
          <mxGeometry x="2343.6" y="538" width="60" height="30" as="geometry" />
        </mxCell>
        <mxCell id="GwbS5jFYsHsskkGVQM9a-73" value="Laptop" style="text;html=1;strokeColor=none;fillColor=none;align=center;verticalAlign=middle;whiteSpace=wrap;rounded=0;" vertex="1" parent="1">
          <mxGeometry x="2680.4" y="403.13" width="60" height="30" as="geometry" />
        </mxCell>
        <mxCell id="GwbS5jFYsHsskkGVQM9a-74" value="" style="sketch=0;pointerEvents=1;shadow=0;dashed=0;html=1;strokeColor=none;fillColor=#505050;labelPosition=center;verticalLabelPosition=bottom;verticalAlign=top;outlineConnect=0;align=center;shape=mxgraph.office.devices.tv;" vertex="1" parent="1">
          <mxGeometry x="2506.5" y="332" width="80" height="60" as="geometry" />
        </mxCell>
        <mxCell id="GwbS5jFYsHsskkGVQM9a-75" value="Smart TV" style="text;html=1;strokeColor=none;fillColor=none;align=center;verticalAlign=middle;whiteSpace=wrap;rounded=0;" vertex="1" parent="1">
          <mxGeometry x="2516.5" y="400" width="60" height="30" as="geometry" />
        </mxCell>
        <mxCell id="GwbS5jFYsHsskkGVQM9a-76" value="" style="image;points=[];aspect=fixed;html=1;align=center;shadow=0;dashed=0;image=img/lib/allied_telesis/wireless/Access_Point_Indoor.svg;" vertex="1" parent="1">
          <mxGeometry x="2528.2" y="480" width="36.6" height="54.6" as="geometry" />
        </mxCell>
        <mxCell id="GwbS5jFYsHsskkGVQM9a-77" value="AP" style="text;html=1;strokeColor=none;fillColor=none;align=center;verticalAlign=middle;whiteSpace=wrap;rounded=0;" vertex="1" parent="1">
          <mxGeometry x="2516.5" y="538" width="60" height="30" as="geometry" />
        </mxCell>
        <mxCell id="GwbS5jFYsHsskkGVQM9a-78" value="" style="verticalLabelPosition=bottom;sketch=0;aspect=fixed;html=1;verticalAlign=top;strokeColor=none;align=center;outlineConnect=0;shape=mxgraph.citrix.switch;" vertex="1" parent="1">
          <mxGeometry x="2664.4" y="486.54999999999995" width="92" height="41.5" as="geometry" />
        </mxCell>
        <mxCell id="GwbS5jFYsHsskkGVQM9a-79" value="Switch" style="text;html=1;strokeColor=none;fillColor=none;align=center;verticalAlign=middle;whiteSpace=wrap;rounded=0;" vertex="1" parent="1">
          <mxGeometry x="2680.4" y="534.6" width="60" height="30" as="geometry" />
        </mxCell>
        <mxCell id="GwbS5jFYsHsskkGVQM9a-80" value="" style="endArrow=none;html=1;rounded=0;" edge="1" parent="1" source="GwbS5jFYsHsskkGVQM9a-69" target="GwbS5jFYsHsskkGVQM9a-78">
          <mxGeometry width="50" height="50" relative="1" as="geometry">
            <mxPoint x="2403.6" y="444.5" as="sourcePoint" />
            <mxPoint x="2660.6" y="551.5" as="targetPoint" />
            <Array as="points">
              <mxPoint x="2440" y="500" />
              <mxPoint x="2440" y="570" />
              <mxPoint x="2550" y="570" />
              <mxPoint x="2660" y="570" />
            </Array>
          </mxGeometry>
        </mxCell>
        <mxCell id="GwbS5jFYsHsskkGVQM9a-81" value="" style="endArrow=none;html=1;rounded=0;" edge="1" parent="1" source="GwbS5jFYsHsskkGVQM9a-76" target="GwbS5jFYsHsskkGVQM9a-78">
          <mxGeometry width="50" height="50" relative="1" as="geometry">
            <mxPoint x="2417" y="527" as="sourcePoint" />
            <mxPoint x="2680" y="538" as="targetPoint" />
            <Array as="points" />
          </mxGeometry>
        </mxCell>
        <mxCell id="GwbS5jFYsHsskkGVQM9a-82" value="" style="endArrow=none;html=1;rounded=0;" edge="1" parent="1" source="GwbS5jFYsHsskkGVQM9a-70" target="GwbS5jFYsHsskkGVQM9a-78">
          <mxGeometry width="50" height="50" relative="1" as="geometry">
            <mxPoint x="2575" y="517" as="sourcePoint" />
            <mxPoint x="2674" y="517" as="targetPoint" />
            <Array as="points" />
          </mxGeometry>
        </mxCell>
        <mxCell id="GwbS5jFYsHsskkGVQM9a-83" value="" style="endArrow=none;dashed=1;html=1;rounded=0;" edge="1" parent="1" source="GwbS5jFYsHsskkGVQM9a-74" target="GwbS5jFYsHsskkGVQM9a-76">
          <mxGeometry width="50" height="50" relative="1" as="geometry">
            <mxPoint x="2500" y="550" as="sourcePoint" />
            <mxPoint x="2550" y="500" as="targetPoint" />
          </mxGeometry>
        </mxCell>
        <mxCell id="GwbS5jFYsHsskkGVQM9a-84" value="" style="endArrow=none;html=1;rounded=0;" edge="1" parent="1" source="GwbS5jFYsHsskkGVQM9a-68" target="GwbS5jFYsHsskkGVQM9a-78">
          <mxGeometry width="50" height="50" relative="1" as="geometry">
            <mxPoint x="2460" y="356" as="sourcePoint" />
            <mxPoint x="2460" y="440" as="targetPoint" />
            <Array as="points">
              <mxPoint x="2310" y="370" />
              <mxPoint x="2310" y="480" />
              <mxPoint x="2310" y="590" />
              <mxPoint x="2710" y="590" />
            </Array>
          </mxGeometry>
        </mxCell>
        <mxCell id="GwbS5jFYsHsskkGVQM9a-86" value="Server Room" style="whiteSpace=wrap;html=1;fillColor=#d5e8d4;fontSize=14;strokeColor=none;verticalAlign=top;" vertex="1" parent="1">
          <mxGeometry x="2280" y="629.5" width="390" height="374" as="geometry" />
        </mxCell>
        <mxCell id="GwbS5jFYsHsskkGVQM9a-87" value="" style="verticalLabelPosition=bottom;sketch=0;aspect=fixed;html=1;verticalAlign=top;strokeColor=none;align=center;outlineConnect=0;shape=mxgraph.citrix.switch;" vertex="1" parent="1">
          <mxGeometry x="2408.5" y="712.45" width="92" height="41.5" as="geometry" />
        </mxCell>
        <mxCell id="GwbS5jFYsHsskkGVQM9a-88" value="Distribution Switch" style="text;html=1;strokeColor=none;fillColor=none;align=center;verticalAlign=middle;whiteSpace=wrap;rounded=0;" vertex="1" parent="1">
          <mxGeometry x="2402.5" y="753.58" width="104" height="30" as="geometry" />
        </mxCell>
        <mxCell id="GwbS5jFYsHsskkGVQM9a-89" value="" style="verticalLabelPosition=bottom;sketch=0;aspect=fixed;html=1;verticalAlign=top;strokeColor=none;align=center;outlineConnect=0;shape=mxgraph.citrix.router;" vertex="1" parent="1">
          <mxGeometry x="2573.51" y="712.88" width="55" height="36.5" as="geometry" />
        </mxCell>
        <mxCell id="GwbS5jFYsHsskkGVQM9a-90" value="Router" style="text;html=1;strokeColor=none;fillColor=none;align=center;verticalAlign=middle;whiteSpace=wrap;rounded=0;" vertex="1" parent="1">
          <mxGeometry x="2572.01" y="755.88" width="58" height="30" as="geometry" />
        </mxCell>
        <mxCell id="GwbS5jFYsHsskkGVQM9a-91" value="" style="verticalLabelPosition=bottom;sketch=0;aspect=fixed;html=1;verticalAlign=top;strokeColor=none;align=center;outlineConnect=0;shape=mxgraph.citrix.router;" vertex="1" parent="1">
          <mxGeometry x="2690" y="712.45" width="55" height="36.5" as="geometry" />
        </mxCell>
        <mxCell id="GwbS5jFYsHsskkGVQM9a-92" value="Main router" style="text;html=1;strokeColor=none;fillColor=none;align=center;verticalAlign=middle;whiteSpace=wrap;rounded=0;" vertex="1" parent="1">
          <mxGeometry x="2665.5" y="749.38" width="104" height="30" as="geometry" />
        </mxCell>
        <mxCell id="GwbS5jFYsHsskkGVQM9a-93" value="" style="verticalLabelPosition=bottom;sketch=0;aspect=fixed;html=1;verticalAlign=top;strokeColor=none;align=center;outlineConnect=0;shape=mxgraph.citrix.firewall;" vertex="1" parent="1">
          <mxGeometry x="2578.9300000000003" y="791.5" width="44.15" height="54.75" as="geometry" />
        </mxCell>
        <mxCell id="GwbS5jFYsHsskkGVQM9a-94" value="Firewall" style="text;html=1;strokeColor=none;fillColor=none;align=center;verticalAlign=middle;whiteSpace=wrap;rounded=0;" vertex="1" parent="1">
          <mxGeometry x="2572" y="846.25" width="58" height="30" as="geometry" />
        </mxCell>
        <mxCell id="GwbS5jFYsHsskkGVQM9a-95" value="" style="endArrow=none;html=1;rounded=0;" edge="1" parent="1" source="GwbS5jFYsHsskkGVQM9a-87" target="GwbS5jFYsHsskkGVQM9a-89">
          <mxGeometry width="50" height="50" relative="1" as="geometry">
            <mxPoint x="2465.8" y="689.5" as="sourcePoint" />
            <mxPoint x="2564.8" y="689.5" as="targetPoint" />
            <Array as="points" />
          </mxGeometry>
        </mxCell>
        <mxCell id="GwbS5jFYsHsskkGVQM9a-96" value="" style="endArrow=none;html=1;rounded=0;" edge="1" parent="1" source="GwbS5jFYsHsskkGVQM9a-89" target="GwbS5jFYsHsskkGVQM9a-93">
          <mxGeometry width="50" height="50" relative="1" as="geometry">
            <mxPoint x="2474.51" y="815.93" as="sourcePoint" />
            <mxPoint x="2579.51" y="817.93" as="targetPoint" />
            <Array as="points" />
          </mxGeometry>
        </mxCell>
        <mxCell id="GwbS5jFYsHsskkGVQM9a-97" value="" style="endArrow=none;html=1;rounded=0;" edge="1" parent="1" source="GwbS5jFYsHsskkGVQM9a-89" target="GwbS5jFYsHsskkGVQM9a-91">
          <mxGeometry width="50" height="50" relative="1" as="geometry">
            <mxPoint x="2710" y="694.75" as="sourcePoint" />
            <mxPoint x="2815" y="696.75" as="targetPoint" />
            <Array as="points" />
          </mxGeometry>
        </mxCell>
        <mxCell id="GwbS5jFYsHsskkGVQM9a-98" value="" style="verticalLabelPosition=bottom;sketch=0;aspect=fixed;html=1;verticalAlign=top;strokeColor=none;align=center;outlineConnect=0;shape=mxgraph.citrix.dns_server;" vertex="1" parent="1">
          <mxGeometry x="2488.3" y="873.87" width="76.5" height="92.5" as="geometry" />
        </mxCell>
        <mxCell id="GwbS5jFYsHsskkGVQM9a-99" value="" style="verticalLabelPosition=bottom;sketch=0;aspect=fixed;html=1;verticalAlign=top;strokeColor=none;align=center;outlineConnect=0;shape=mxgraph.citrix.file_server;" vertex="1" parent="1">
          <mxGeometry x="2360" y="866.5" width="71" height="97" as="geometry" />
        </mxCell>
        <mxCell id="GwbS5jFYsHsskkGVQM9a-100" value="" style="endArrow=none;html=1;rounded=0;" edge="1" parent="1" source="GwbS5jFYsHsskkGVQM9a-87" target="GwbS5jFYsHsskkGVQM9a-99">
          <mxGeometry width="50" height="50" relative="1" as="geometry">
            <mxPoint x="2437.5" y="819.45" as="sourcePoint" />
            <mxPoint x="2655.5" y="817.45" as="targetPoint" />
            <Array as="points" />
          </mxGeometry>
        </mxCell>
        <mxCell id="GwbS5jFYsHsskkGVQM9a-101" value="" style="endArrow=none;html=1;rounded=0;" edge="1" parent="1" source="GwbS5jFYsHsskkGVQM9a-87" target="GwbS5jFYsHsskkGVQM9a-98">
          <mxGeometry width="50" height="50" relative="1" as="geometry">
            <mxPoint x="2458" y="763.5" as="sourcePoint" />
            <mxPoint x="2421" y="876.5" as="targetPoint" />
            <Array as="points" />
          </mxGeometry>
        </mxCell>
        <mxCell id="GwbS5jFYsHsskkGVQM9a-102" value="" style="endArrow=none;html=1;rounded=0;" edge="1" parent="1" source="GwbS5jFYsHsskkGVQM9a-60" target="GwbS5jFYsHsskkGVQM9a-87">
          <mxGeometry width="50" height="50" relative="1" as="geometry">
            <mxPoint x="2263" y="811" as="sourcePoint" />
            <mxPoint x="2481" y="809" as="targetPoint" />
            <Array as="points" />
          </mxGeometry>
        </mxCell>
        <mxCell id="GwbS5jFYsHsskkGVQM9a-103" value="" style="endArrow=none;html=1;rounded=0;" edge="1" parent="1" source="GwbS5jFYsHsskkGVQM9a-14" target="GwbS5jFYsHsskkGVQM9a-87">
          <mxGeometry width="50" height="50" relative="1" as="geometry">
            <mxPoint x="2243" y="867" as="sourcePoint" />
            <mxPoint x="2462" y="760" as="targetPoint" />
            <Array as="points" />
          </mxGeometry>
        </mxCell>
        <mxCell id="GwbS5jFYsHsskkGVQM9a-104" value="" style="endArrow=none;html=1;rounded=0;" edge="1" parent="1" source="GwbS5jFYsHsskkGVQM9a-78" target="GwbS5jFYsHsskkGVQM9a-87">
          <mxGeometry width="50" height="50" relative="1" as="geometry">
            <mxPoint x="2182" y="471.5" as="sourcePoint" />
            <mxPoint x="2443" y="722.5" as="targetPoint" />
            <Array as="points">
              <mxPoint x="2710" y="610" />
            </Array>
          </mxGeometry>
        </mxCell>
        <mxCell id="GwbS5jFYsHsskkGVQM9a-105" value="File server" style="text;html=1;strokeColor=none;fillColor=none;align=center;verticalAlign=middle;whiteSpace=wrap;rounded=0;" vertex="1" parent="1">
          <mxGeometry x="2343.5" y="958.5" width="104" height="30" as="geometry" />
        </mxCell>
        <mxCell id="GwbS5jFYsHsskkGVQM9a-106" value="DNS server" style="text;html=1;strokeColor=none;fillColor=none;align=center;verticalAlign=middle;whiteSpace=wrap;rounded=0;" vertex="1" parent="1">
          <mxGeometry x="2477.3" y="958.75" width="87.5" height="30" as="geometry" />
        </mxCell>
        <mxCell id="GwbS5jFYsHsskkGVQM9a-108" value="Description" style="whiteSpace=wrap;html=1;fillColor=#dae8fc;fontSize=14;strokeColor=none;verticalAlign=top;" vertex="1" parent="1">
          <mxGeometry x="2800" y="264" width="310" height="336" as="geometry" />
        </mxCell>
        <mxCell id="GwbS5jFYsHsskkGVQM9a-109" value="" style="verticalLabelPosition=bottom;sketch=0;aspect=fixed;html=1;verticalAlign=top;strokeColor=none;align=center;outlineConnect=0;shape=mxgraph.citrix.desktop;" vertex="1" parent="1">
          <mxGeometry x="2820" y="300.88" width="38.14" height="42" as="geometry" />
        </mxCell>
        <mxCell id="GwbS5jFYsHsskkGVQM9a-110" value="" style="image;points=[];aspect=fixed;html=1;align=center;shadow=0;dashed=0;image=img/lib/allied_telesis/wireless/Access_Point_Indoor.svg;" vertex="1" parent="1">
          <mxGeometry x="2825.49" y="368.5" width="27.15" height="40.5" as="geometry" />
        </mxCell>
        <mxCell id="GwbS5jFYsHsskkGVQM9a-111" value="" style="verticalLabelPosition=bottom;sketch=0;aspect=fixed;html=1;verticalAlign=top;strokeColor=none;align=center;outlineConnect=0;shape=mxgraph.citrix.laptop_2;" vertex="1" parent="1">
          <mxGeometry x="2812.24" y="433.13" width="53.64" height="40" as="geometry" />
        </mxCell>
        <mxCell id="GwbS5jFYsHsskkGVQM9a-112" value="" style="sketch=0;pointerEvents=1;shadow=0;dashed=0;html=1;strokeColor=none;fillColor=#505050;labelPosition=center;verticalLabelPosition=bottom;verticalAlign=top;outlineConnect=0;align=center;shape=mxgraph.office.devices.tv;" vertex="1" parent="1">
          <mxGeometry x="2825.88" y="498" width="40" height="32.5" as="geometry" />
        </mxCell>
        <mxCell id="GwbS5jFYsHsskkGVQM9a-113" value="" style="verticalLabelPosition=bottom;sketch=0;aspect=fixed;html=1;verticalAlign=top;strokeColor=none;align=center;outlineConnect=0;shape=mxgraph.citrix.switch;" vertex="1" parent="1">
          <mxGeometry x="2814.29" y="553.5" width="63.19" height="28.5" as="geometry" />
        </mxCell>
        <mxCell id="GwbS5jFYsHsskkGVQM9a-114" value="- Represents 10 PCs" style="text;html=1;strokeColor=none;fillColor=none;align=center;verticalAlign=middle;whiteSpace=wrap;rounded=0;" vertex="1" parent="1">
          <mxGeometry x="2877.48" y="312.88" width="124.12" height="30" as="geometry" />
        </mxCell>
        <mxCell id="GwbS5jFYsHsskkGVQM9a-115" value="- Access Point" style="text;html=1;strokeColor=none;fillColor=none;align=center;verticalAlign=middle;whiteSpace=wrap;rounded=0;" vertex="1" parent="1">
          <mxGeometry x="2877.4799999999996" y="373.13" width="91.86" height="30" as="geometry" />
        </mxCell>
        <mxCell id="GwbS5jFYsHsskkGVQM9a-116" value="- Laptop" style="text;html=1;strokeColor=none;fillColor=none;align=center;verticalAlign=middle;whiteSpace=wrap;rounded=0;" vertex="1" parent="1">
          <mxGeometry x="2877.48" y="438.13" width="62.52" height="30" as="geometry" />
        </mxCell>
        <mxCell id="GwbS5jFYsHsskkGVQM9a-117" value="- Wifi direct display" style="text;html=1;strokeColor=none;fillColor=none;align=center;verticalAlign=middle;whiteSpace=wrap;rounded=0;" vertex="1" parent="1">
          <mxGeometry x="2877.48" y="499.25" width="122.52" height="30" as="geometry" />
        </mxCell>
        <mxCell id="GwbS5jFYsHsskkGVQM9a-118" value="- Switch" style="text;html=1;strokeColor=none;fillColor=none;align=center;verticalAlign=middle;whiteSpace=wrap;rounded=0;" vertex="1" parent="1">
          <mxGeometry x="2877.48" y="552.75" width="62.52" height="30" as="geometry" />
        </mxCell>
        <mxCell id="GwbS5jFYsHsskkGVQM9a-119" value="Connection Type" style="whiteSpace=wrap;html=1;fillColor=#dae8fc;fontSize=14;strokeColor=none;verticalAlign=top;" vertex="1" parent="1">
          <mxGeometry x="2800" y="622.75" width="310" height="147.25" as="geometry" />
        </mxCell>
        <mxCell id="GwbS5jFYsHsskkGVQM9a-130" value="" style="endArrow=none;html=1;rounded=0;" edge="1" parent="1">
          <mxGeometry width="50" height="50" relative="1" as="geometry">
            <mxPoint x="2820" y="684.5" as="sourcePoint" />
            <mxPoint x="2881" y="684.5" as="targetPoint" />
            <Array as="points" />
          </mxGeometry>
        </mxCell>
        <mxCell id="GwbS5jFYsHsskkGVQM9a-132" value="Ethernet Cable" style="text;html=1;strokeColor=none;fillColor=none;align=center;verticalAlign=middle;whiteSpace=wrap;rounded=0;" vertex="1" parent="1">
          <mxGeometry x="2906.82" y="670" width="103.18" height="30" as="geometry" />
        </mxCell>
        <mxCell id="GwbS5jFYsHsskkGVQM9a-134" value="" style="endArrow=none;dashed=1;html=1;rounded=0;" edge="1" parent="1">
          <mxGeometry width="50" height="50" relative="1" as="geometry">
            <mxPoint x="2880" y="730" as="sourcePoint" />
            <mxPoint x="2820" y="730.1999999999999" as="targetPoint" />
          </mxGeometry>
        </mxCell>
        <mxCell id="GwbS5jFYsHsskkGVQM9a-135" value="Wireless Cable" style="text;html=1;strokeColor=none;fillColor=none;align=center;verticalAlign=middle;whiteSpace=wrap;rounded=0;" vertex="1" parent="1">
          <mxGeometry x="2906.8200000000006" y="715.7" width="103.18" height="30" as="geometry" />
        </mxCell>
      </root>
    </mxGraphModel>
  </diagram>
</mxfile>
